/* XPM */
static char *_dfb1d6b8a194687bff23b44634e415a6GdlWlkjXDlQHs4l[] = {
/* columns rows colors chars-per-pixel */
"75 75 245 2 ",
"   c #6D1E1B",
".  c #6C1E17",
"X  c #751D14",
"o  c #7B1D14",
"O  c #731E1B",
"+  c #7B1E1A",
"@  c #73190E",
"#  c #5C271C",
"$  c #64241D",
"%  c #6C221C",
"&  c #6A2418",
"*  c #732215",
"=  c #7A2115",
"-  c #72221C",
";  c #7C231B",
":  c #7A2A1B",
">  c #6C1E21",
",  c #751E22",
"<  c #5C2525",
"1  c #642422",
"2  c #6B2422",
"3  c #662A23",
"4  c #6B2A24",
"5  c #6C2B2A",
"6  c #68272B",
"7  c #722322",
"8  c #7D2621",
"9  c #7C2B23",
"0  c #752A26",
"q  c #7A342C",
"w  c #6B3836",
"e  c #753D3C",
"r  c #7A3D39",
"t  c #6B312F",
"y  c #75423C",
"u  c #7A423E",
"i  c #7E4A3F",
"p  c #793D42",
"a  c #7D4343",
"s  c #7B4A47",
"d  c #7D514A",
"f  c #734B4A",
"g  c #851D16",
"h  c #871C0E",
"j  c #83251D",
"k  c #832A1E",
"l  c #8A2619",
"z  c #942A1E",
"x  c #9B2C1D",
"c  c #95261B",
"v  c #99311E",
"b  c #8A311E",
"n  c #A42C1D",
"m  c #A0311D",
"M  c #832622",
"N  c #842A22",
"B  c #8B2C23",
"V  c #8A2A27",
"C  c #932D23",
"Z  c #9C2C23",
"A  c #942B28",
"S  c #8D3225",
"D  c #8B3229",
"F  c #85342A",
"G  c #943224",
"H  c #9B3324",
"J  c #94332A",
"K  c #9C342B",
"L  c #993B2C",
"P  c #883933",
"I  c #993A32",
"U  c #A52D25",
"Y  c #A33324",
"T  c #AA3525",
"R  c #A4352A",
"E  c #AB352B",
"W  c #A43B2D",
"Q  c #AB3B2C",
"!  c #A93A24",
"~  c #B33C2C",
"^  c #BB3E2D",
"/  c #B23828",
"(  c #A43C32",
")  c #AB3C32",
"_  c #A73834",
"`  c #B33D32",
"'  c #BC3E33",
"]  c #BB3D39",
"[  c #881E20",
"{  c #C23E2D",
"}  c #C93D2D",
"|  c #C33E32",
" . c #C63E37",
".. c #84433C",
"X. c #9B4337",
"o. c #A9422D",
"O. c #B5432E",
"+. c #BC422E",
"@. c #B8472B",
"#. c #AB4234",
"$. c #AC4B3B",
"%. c #A84637",
"&. c #B54433",
"*. c #BC4333",
"=. c #B44934",
"-. c #BA4934",
";. c #B4443A",
":. c #BC4439",
">. c #B54B3C",
",. c #BC4B3B",
"<. c #BB523C",
"1. c #AB553E",
"2. c #C3422D",
"3. c #CA412F",
"4. c #C24233",
"5. c #C24339",
"6. c #C34D3C",
"7. c #C74736",
"8. c #C3523C",
"9. c #BD3F40",
"0. c #824342",
"q. c #824D45",
"w. c #824D4A",
"e. c #884946",
"r. c #964A45",
"t. c #86504B",
"y. c #9A524C",
"u. c #875A56",
"i. c #9B5B54",
"p. c #A94B42",
"a. c #B54B45",
"s. c #A85649",
"d. c #BC5443",
"f. c #B75849",
"g. c #A85B55",
"h. c #BA5F51",
"j. c #8C655C",
"k. c #98655C",
"l. c #A9655B",
"z. c #B96656",
"x. c #B76752",
"c. c #8D6865",
"v. c #936564",
"b. c #946A65",
"n. c #9C6E6C",
"m. c #966869",
"M. c #9B716C",
"N. c #9A7569",
"B. c #9C6D72",
"V. c #966B72",
"C. c #9D7C74",
"Z. c #9C7D7B",
"A. c #987774",
"S. c #A76D69",
"D. c #B76D64",
"F. c #AC756C",
"G. c #A47B6E",
"H. c #AB7B6D",
"J. c #A77368",
"K. c #B2746D",
"L. c #B4766A",
"P. c #A26B71",
"I. c #A37573",
"U. c #AB7673",
"Y. c #A47B74",
"T. c #AB7B74",
"R. c #A37B7A",
"E. c #AA7D7A",
"W. c #A87779",
"Q. c #B37A73",
"!. c #B47A76",
"~. c #B16F71",
"^. c #C54D42",
"/. c #C45D4B",
"(. c #CA5D4C",
"). c #C55745",
"_. c #D05D52",
"`. c #C3624C",
"'. c #CA624D",
"]. c #C56349",
"[. c #C36353",
"{. c #CC6453",
"}. c #CC6954",
"|. c #C96959",
" X c #D26554",
".X c #D66A58",
"XX c #D8735D",
"oX c #CB705C",
"OX c #E36D5E",
"+X c #C87668",
"@X c #D47463",
"#X c #DB7564",
"$X c #DA7965",
"%X c #D67967",
"&X c #CC7469",
"*X c #E6796A",
"=X c #E37F70",
"-X c #9C817B",
";X c #96817A",
":X c #A58174",
">X c #AA8177",
",X c #A3827B",
"<X c #AB827B",
"1X c #BC8476",
"2X c #B5847B",
"3X c #BB857B",
"4X c #BD897A",
"5X c #B58677",
"6X c #AA816E",
"7X c #DC836C",
"8X c #C4857A",
"9X c #C48A7B",
"0X c #CC8B7C",
"qX c #C68777",
"wX c #DC8C75",
"eX c #D48C7C",
"rX c #DC8C7B",
"tX c #DA8776",
"yX c #CC917D",
"uX c #DB917C",
"iX c #D5917C",
"pX c #CF8C6F",
"aX c #E48472",
"sX c #E38A76",
"dX c #E38B7A",
"fX c #E98878",
"gX c #E1917B",
"hX c #EC8471",
"jX c #9C7D80",
"kX c #A47C80",
"lX c #A68381",
"zX c #B98982",
"xX c #9B8583",
"cX c #CC8D83",
"vX c #C68982",
"bX c #D48E82",
"nX c #DB8D81",
"mX c #D88F88",
"MX c #CD9484",
"NX c #CA9289",
"BX c #D39183",
"VX c #DC9183",
"CX c #D29289",
"ZX c #E28D81",
"AX c #E69381",
/* pixels */
"| ^ R F G.C.R.t & 9 J G v v E ' 5.{ 2.2.+.{  .' 4.O.+.).aX=X(.&.+.+.| | ] -.' {  . .%.L.J.J.p.,.*.O.4.5.| E U Z C B h.7XfX X~ 5.] ' O.+.2.+.2.*.| *.*.",
"| ` J F S.I.Y.e % N G G b v E ] 5.4.*.+.5.*.5.5.*.O.*.(.fXtX{.O.@.+.5.5.;.;.:.5. .] p.L.6Xl.p.#.=.*.*.:.;.E U A G G f.7XaX X&.:.-.-.*.*.+.+.*.*.:.;.-.",
";.Q D F J.R.I.w 7 N D S S S K ) #.) o.o.#.) ` ) #.o.%.f.&X&Xf.#.o.o.Q ) ( ( Q Q :.) X.S.6XJ.%.#.#.o.#.#.( K G S N F s.+X%Xx.o.L ( ) ) Q ~ Q Q ) ) ) ( ",
"o X 0 1 n.I.E.w 1   7   & * * ; ; = : * ; ; g g * = X * q 9 8 * = = j + 8 : = ; g X % J.6Xk.: : ; = ; ; * - * % : . - : - : * 8 ; = j g l g ; ; : ; j ",
"4 1 < < A.,XZ.w < 6 6 1 < < # 1 1 1 # # 1 1 2 > $ < 1 1 < < > 1 $ $ 1 1 1 1 1 $ $ 2 6 A.C.c.5 2 $   $ $ $ < $ $ 1 1 1 6 6 1 # 1 1 1 2 2 2 $ % $ $ 1 $ ",
"m.n.V.A.Z.Z.lXV.B.B.B.B.M.M.M.n.B.n.N.b.n.P.P.P.N.N.n.B.V.V.B.B.M.n.B.B.B.B.n.M.n.n.c.xXlXkXB.P.P.n.P.M.n.M.n.n.n.P.S.n.n.n.n.V.n.M.P.P.P.P.n.M.M.n.P.",
"kXkXZ.<XZ.A.Z.,XkXkXR.kX-XR.R.R.Y.R.-XC.C.Y.W.R.C.C.C.-XjXxXjXW.R.C.R.R.R.:XR.Z.C.-XZ.A.Z.Z.R.E.R.R.R.:X-XC.R.-XR.R.R.I.C.Z.-X-XR.R.kXjXR.kXR.-XC.C.R.",
"R.I.Y.G.:XG.G.Y.W.W.W.W.R.Y.G.G.T.T.G.G.Y.Y.T.U.:X:XY.:XA.xXZ.W.T.R.T.Y.Y.R.Y.Y.C.:XR.R.Y.E.T.T.Y.Y.Y.Y.G.G.G.H.G.H.T.Y.Y.Y.Y.Y.R.R.Z.Z.Z.Z.R.Y.Y.Y.Y.",
"cX0X0XpXyXpXyX9X0XcXcX0XcX0X0XeXeXl.s.D.pXyX0X0XyXyX0X5X,X,XzXvX0X0XcXbX0X0XcX9X9X9XyX9XiX0X0XyXbX0XeXbX0Xz.s.s.D.rXeXeXeX8XbXbX0XcXzXC.,X2XvX0XyXyX9X",
"sXsXwXsXwXwXwXgXAXrXwXdXdXsXsXwXaXz.<.].7XwXdXdXsXsXwX0X6X,X+X=XZXdXsXsXdXsXAXwXVXwXwXsXsXfXsXsXsXtXsXsX=X[.1.%.@XsXsXsXdXdXZXaXZXeX3X6X>X5XrXuX7XwXiX",
"(.(././.]././.$X7XoX].(.(.).(./.(.6.2.7.(.(./.(.).8.`.z.J.J.D.[./._./.(.(.(.=X=XXXf.f.].)././.d././.(.(.(.,.&.;.=.>.<.f.h./.(././.h.S.H.H.D.x.).].].$X",
"4.^ *.O.*.=.>.#XfX'.=.*.| *.6.=.=.*.3.} 4.+.*.-.-.@.=.s.L.H.g.p.;.:.*.` 3.^.=XfX X<.7.@.*.4.*.-.:.=.-.*.*.` ' *.! x W >.-.&.;.] &.$.l.F.K.g.>.&.@.8.XX",
"3.*.5.;.] ;.&.#X*X).*.+.|  .*.&.&.' | } 5.5.5.:.,.` ;.g.Q.J.g.p.a.] *.*.-.,.*X*X_.5.+.*.O.4.:. .' *.5.' :.` ` ] E U Q :.` :.d.:.a.%.g.U.~.g.$.*.@.<..X",
"{ | ^ :._ R Z ).`.-.+.3.} 4.` R R ~ 4.{ ^ ] :.] ` R R r.F.n.e.F K ` -.=.-.&._.).^.' *.4.+.4.|  .| | ' / E x c c U ` ] ` :. X*X X#.I y.W.~.g.$.=.@.+.8.",
"2.7.*.&.U A Z #.O.O.{ } } { ! v x ! *.*.*.' ] :.` U J r.!.M.0.  [ ~ *.*.O.o.=.:.5.' { +.+.+.{ 4.7.4.' Y x h h h R :.;.:.-. X*XXXo.J r.!.~.l.=.@.@.@.2.",
"+.2.T Q c c z R W O.2.{ } 4.~ Q Q O.+.~ / ~ R R Z B V P F.n.w.0 V U Y v ! o.Q E |  .4.2.+.+.^ 3.{ 3.*.T ! v x Z _ ;.` ` o.=.`.1.J N e.~.P.g.L v ! / O.",
"2.~ v H = = = S H Q 5. .| | | ] ~ *.=.T Y H z g , + 7 P E.I.y.F V [ g k H J K E ` | 5. .+.+.*.' 4.| *.+.*.` ` ` =.;.Q Y H R L G * 4 ..T.S.t.: j G ! E ",
";.#.K S = * * b K _ ` *.] ' ;.&.*.:.&.W H C N - O > 0 p U.n.y.P V M - : S J A A E ] 9.] *.&.*.&.' &.` :.&.;.&.;.;.;.) K C G G S 9 $ u G.J.q.% 8 G K Q ",
"J S j 8 .     : 8 V A C C C J C C C S l k : - &   > < p Y.N.r.: 8 , & % : : 8 M A C A J z b v C S B C C C A J A V V V M M M ; 8 % $ a !.J.w.1 % 8 k M ",
"  % $ 2   2 1 2   % % - - % - % O & & & & & $ $ 6 1 < p C.b.i # $ $ $ $ $ & % 7   X % & & * - X & . % % %   .   %   % %   - 2 $ 1 < s Y.M.w.< 6   - - ",
"s w.d w.d t.w.w.w.w.w.w.q.q.d w.w.w.w.w.q.s s q.d w.d j.;XN.j.s w.w.d d d i d w.w.s d s s w.w.w.w.w.w.d w.w.w.w.w.d w.w.w.w.d w.t.w.j.C.C.c.d d w.w.w.",
"C.G.C.I.B.R.W.W.I.Y.Y.C.C.C.C.C.R.I.C.C.C.G.Y.R.I.W.W.Z.-X-XR.Y.U.M.C.Z.C.C.Y.M.G.C.A.Z.Z.A.I.I.I.Y.C.Y.C.I.Y.I.U.G.Y.C.Y.C.Y.M.G.N.C.-XZ.Z.A.Y.U.Y.C.",
"G.6XY.Y.Y.W.R.W.Y.Y.Y.:X-XG.Z.R.R.W.R.R.T.W.Y.J.W.E.U.Y.:X-XR.Y.W.T.R.Z.-X-XR.Y.Y.-X-X-XZ.Y.R.R.R.Y.Y.R.Y.Y.Y.Y.Y.Y.Y.Y.C.:XR.:X6XC.6X;XC.-XR.Y.Y.Y.C.",
"5X5X3X3X2XzX!.zX3X5X5X3X5X5X!.zX!.zX3X3X3X1XH.l.F.+X!.8X3X3X2X3X3XzXzX<X;X-X2X3X5X5X2XzXzX3X3X8X3X2X2X3X3X3X3X3X5X3X3X5X5X5X5X5X1X5X5X5X5X5X3X2X2X2X>X",
"wXnXnXbXeXbXcXeXbXnXnXnXnXnXnXmXnXnXrXrXgXrXoX$.x.%XZXZXdXnXnXnXZXZXmXvXA.Y.BXrXuXwXiXiXeXrXuXuXVXbXBXVXeXVXnXrXrXrXnXnXnXnXnXnXrXgXVXyXiXVXmXnXbXNX2X",
"#X#X%X&X+X+X+X+XoX@X#X#X#X#X@X#X@XXXXX#XXXXX`.=.d..X*X#XXX#X&X%X#X@X&X+XT.H.+X$X$XXX#X$X%X%XXXXXtXsXdX7X@X@X@X#X#X#X#X#X%X#X@X@X#X#X%XXX&X%X&X%XZXnX!.",
"8.6.^.d.o.X.o.W o.-.^.^.6.^.^.8.8.8.8.8.6.8.6.^ O.6.7.8.8.^.f.<.,.).f.g.L.J.f.<.8.7.8.,.^.^.8.<.XXaXaX].<.<.).8.6.8.6.6.^.^.^.^.^.8.8.8.8.8.d.[.ZXbXL.",
"4.*.-.=.v v v x n T ^ +.^ 4.4.' 2.@.+.2.O.:.*.' *.+.^ 2.7.+.=.$.&.;.a.g.6XJ.$.+.*.+.+.*.;.` *.@.XXhXhX<.@.O.@.O.*.*.2.*.*.' :.5.| { +.+.-.@.-.).ZXtX1X",
"! T O.=.Y T T T ! ~ +.+.2.4.4.^ +.O.:.` R R E ` &.-.' *.4.4.<.`.)._ _ i.T.F.a.*.~ ~ &.R _ _ -.O.'.XX.X<.-.@.+.+.*.*.' ~ ` E E E ^ 4.4.2.+.+.+.>.|.L.!.",
"m ! &.:.*.] ' ' +.+.+.+.+.*.*.*.*.-.&.U g h A A R ` *.2. .7..XhXXXJ P r.T.J.%.*.T H z h g [ ` &.2.-.-.@.-.^ O.4.+.~ Q R Z l g g E ' 2.+.+.+.*.;.J P i.",
"x v ~ ` 5.|  . .4.4.*.+.+.O.^ ~ O.O.=.R g g Z U R &.&.4.} 7. X7XoXb V r.E.U.$.4.~ Y H o [ Z ` ] :.' 2.4.5.5.5.^.,.&.R C A k j B Q *.*.+.+.+.` ) V P S.",
"G H Q E  .]  . .| +.=.O.Q ! U x z W ;.` R R E E Q =.O.+.4.{ -.<.$.l F P U.K.%.-.~ Q o.H _ Z Q T ^ | *.5. ._.OX.X;._ A l j k M J ` -.4.*.^ ~ T K j F i.",
"A C A U ` 5.5.*.*.:.&.#.W C l g = J >.*.^ ' 5.*.=.@.O.@.*.' Y C b o - ..J.J.p.;.;.*.:.>.;.) Y z ~ *.*.-.&.OXfXZXa.I j ; X M K K O.O.*.-.` W C V * 0 g.",
"J A A J R _ _ Q ) #.( W K S ; * - F ( Q / ~ ~ E ) W W W W R K A M + % w 6XG...%._ Q Q Q ( L J z L ! W ) #.[.&X&Xr.P 7 % O ; V G W o.Q o.( K V F - 5 k.",
"    % X O X = ; o X X * % -     > 7 - * o o o o + + * * * X O , , 6 6 y R.A.2 O + + X = * O O . = X X = @ * - % O   2 % % % - * * = = = X X . . 2 t v.",
"1 4 4 4 % 2 % 7 - % 4 % % 2 4 5 5 6 2 $ & & 7 7 7 2 2 % 4 0 2 6 6 5 6 f Z.A.6 0 7 7 - % 2 4 6 2 2 % 4 7 % % 4 % 1 1 3 3 3 % 4 $ $ % % % 2 4 4 3 1 w u.",
"y y y y e u e r u u u e e e e e r p p u y y y p p 0.p e y y a p w a f d ;XZ.a e r u r u y y a a u y a y r e y e u u y e y y u y y y y y e u y a s s v.",
"Y.T.G.G.T.T.T.U.U.U.T.U.T.T.T.!.~.E.T.R.:XY.R.R.kXE.W.J.G.T.R.U.lXW.,XY.;X,XP.!.Q.T.T.T.Y.T.U.U.W.T.T.U.T.T.T.T.F.T.H.T.E.E.Y.R.R.Y.H.T.T.U.U.U.U.I.T.",
"Q.H.T.H.U.T.T.W.!.T.!.!.L.Q.L.Q.L.L.H.J.:X:X,XR.Z.>XT.T.H.G.Q.!.L.H.6X6XG.J.L.Q.6XL.H.6XH.T.L.!.!.T.!.U.!.F.Q.L.Q.Q.F.H.T.Y.Y.>XR.T.E.!.Q.Q.!.!.Q.Q.T.",
"BXeXBXCXCXCXCXCXCXCXCXCXCXCXCXBXBXBXiXiXMXNXzX-X2XzXMXBXyXyXBXCXBXBXBXBXMXMXVXrXBXyXMXyXMXMXCXbXCXcXCXcXCXBXbXVXeXiXCXNXNXzXR.<XvXMXCXCXbXbXbXmXbXBXbX",
"wXdXdXdXnXnXnXnXrXnXZXrXrXdXdXwXgXwXwXtXrXmX3XY.>X9XBXwXwXwXrXwXsXwXwXwXwXsXsXdXuXpXeXiXeXeXsXdXrXdXwXrXrXdXwXsXdXdXrXnXcX3XT.!.0XrXrXrXwXdXsXdXdXdXwX",
" X X{.}. X{.{.h.h.|.|.|.{.}.}.{.}.}.}.}.{.oXK.Q.1XyXuX7X}.}.}..X}.}.}.}.}. X X X|.|.oX[.x.h.}. X X.X}.}.}.}.}.}.{.{.[.z.l.S.U.!.D.|.}.}. X{.{. X{.}.{.",
"-.7.+.*.,.*.` E m E =.-.=.=.+.@.@.=.<.>.9.a.g.K.6XiXsXOX=.@.&.:.-.*.@.4.4.*.*.*.;.>.>.Z z H &.' ^ +.@.O.-.=.*.-.-.=.o.G D i.U.S.s.&.=.-.:.*.-.*.*.-.-.",
"^ 4.+.2.4.*.' T n / ^ +.^ +.2.@.@.o.@.&.9.a.g.L.1XtX*XOX7.-.*.' ' *.*.2.| 4.| *.-.&.] U m T 5.} 2.3.2.+.*.*.~ O.*.*.Q C D g.Q.S.f.;.&.*.*.' *.2.+.+.+.",
"*.4.4.*.*.4.+.^ ^ 2.4.4.2.2.2.+.*.OX=X(.U A i.~.J.s.).6.^ ~ ]  .5.| 4.{ 4.3.3.5.E R U | ' ' { { { 3.2.+.` E Y U ~ :.) K P i.Q.k.V h l H T / *.4.2.2.4.",
"*.:.*.O.*.*.O.*.^ +.2.+.2.{ { ^ ' .XhX[.I A i.~.l.1.O.*.O.*.6.:.' 4.*.2.{ { | ^ T n U  . .*.{ 2.} 2.4.*.;.R U n ~ ` Q J P y.U.k.q o l G Z Q *.*.*.^ 4.",
") W ;.#.E E / *.*.*.*.4.2.4.5.4.*.(.oXf.D 9 t.U.J.s.@.@.! ! ` ~ ~ *.4.@.+.2.+.O.Q Y U | ` +.+.2.{ 4.*.;._ K A A E ` R V P i.W.m.r 9 N V C I ;.` ` ` *.",
"g l H G l h l E O.*.*.*.' O.' *.-.) X.N & : w.F.l.s.#.! h l x x T ~ -.+.+.*.+.=.&.O.4.4.*.O.@.+.4.*.) ( J [ g g V I B O 0 t.R.b.0.q 9 ; + k K Z H ! E ",
"X ; N D + o g ( #.=.=.:.' &.*.&.;.( S 9 % & q.F.S.g.a._ o o l b ! o.;.=.] *.=.&.=.@.*.;.;.,.@.+.*.;.` ( S : O X M J M   4 w.Y.n...P N * * N J G C H ( ",
", O : 9 , , + M b z z A z z c C C j ; : % $ ..T.l.P V M X = : : j z B C A A A z b l z c C z z c c x B N : % % O 7 M 8 - 2 t.Y.j.r 9 - * O : 8 ; ; j V ",
"4 % & & > 6 >   . * * * O + O + = X - % $ $ s H.m.q     - - & & & * O O O , O   * * O + O O = = X = * & & % . O O O O . 3 u.>Xk.q 2   - -     - - - 9 ",
"6 3 t $ 6 6 6 6 % 4 4 5 6 6 0 6 4 2 4 0 3 6 d G.u.w 6 5 4 3 $ 3 4 4 6 6 6 0 5 4 3 & 5 5 6 6 4 % % 3 4 3 3 6 5 6 0 4 4 6 t d C.j.e 5 6 5 5 4 5 5 4 6 4 ",
"c.j.k.j.b.V.m.c.j.j.c.j.v.j.c.b.v.m.m.m.m.c.V.lXR.V.c.V.v.v.m.v.b.k.j.b.v.m.v.v.j.j.j.N.V.c.v.v.b.c.c.c.c.m.m.m.v.m.v.b.c.A.xXA.V.v.v.v.v.j.v.b.v.j.b.",
":X:X6XG.Z.kXW.E.6X6X-X-XY.Y.Y.R.<XR.P.W.W.Y.C.Y.Z.C.>XR.W.kXE.R.Y.Y.:XR.!.U.~.W.6X6X:X-XZ.R.R.T.:X-XR.R.R.kXE.W.U.T.T.:X>XC.Z.Z.Y.G.T.<XY.R.T.G.>X>XH.",
"9XqXqXqX!.kXW.zX4X9XvX9XvX9XvX9X0XD.g.D.8XeX0X0XqXqXqX9X0XeX8XqXvX9X9X9XvXvXvX9X9X9X3X<XR.lXzX9X9X9X9X0XvX8XvX8X0XqXqX9XqXqX0X0X0XqX9XqXqX0X0XqXqX+Xl.",
"iXrXiXBX!.Y.K.NXiXiXrXnXnXnXiXBXrXz.>.[.tXrXwXwXuXwXwXwXaXdXtXbXiXiXyXrXnXnXbXiXiXBXvX2XY.2XvXnXrXwXwXwXwXwXrXwXiXpXiXiXtXrXrXtXuXeXeXiXiXwXuXrXdX7Xz.",
"wXgXtXiX!.E.F.8XwXsXfXfXfXhXsXsXsX[.>.{.sXsXsXsXsXsXfXfXfXfXwXwXrXwXwXsXsXfXsXwXsXuXyX5XT.Q.eXrXdXsXfXfXfXfXsXsXsXwXwXuXuXsXgXdXZXrXwXdXZXdXsXfXfX#X{.",
"h.oX7XeXH.C.G.L.[.'.(.(.(.'.].1.d.;.:.^./.`.`.`.(.'.'.(.(.}.%XdX7X'.].'.'.'.].].].z.z.L.H.F.z.x.`.`.'.(.'.{.[.{.].x.f.1.1.+XdX=X|.[.[././.[./.'. X(.,.",
"=.).aXrX>XR.T.i.$.:.:.*.+.+.o.m n ~ 5.*.&.&.&.=.-.-.*.*.*.^.XXhXOX-.+.2.^ *.-.=.&.#.p.~.K.S.p.$.#.=.=.` &.:.~ *.-.=.o.v G [.fX%Xd.-.&.&.*.*.*.+.+.+.+.",
"&.>. XoXF.-XY.r._ ` ' | | 2.^ ! U ^ 4.| *.:.O.! ~ ~ *.| *.5.)..X X+.^ 2.{ { ^ 5.*.( I D.K.~.%.( d. X X6.*.5.' 4.+.+.Q ! W a.[.a.R U E ' *.O.2.+.2.2.2.",
"*.^ 4.s.S.R.W.e.K ` :.:.4.' &.&.O.4.4.| | 5.~ m T &.5.4.*.*.4.*.6.*.2.2.4.4.^ 6.E H P ~.T.S.P J }.=X*X).;.*.' 5.| 4.^ *.=.W L x c h c ] 5.' | | 4.| 3.",
"4.2.4.;.U.R.R.e.D Q ` =.5.4.:.*.5.{ | { } { / m ! ~ *.4.| *.*.+.' 4.+.~ 4.4.~ *.Q C P S.R.n.P S oXaXaXd.&.;.| | } 7.{ +.*.T x z g g U ] a. .4.4.{ |  .",
"2.2.{ ;.F.Y.G.r M K W Q _..X^.>.*.+.*.| }  .` E R T ! ~ *.+.4.2.*.*.2.{ 3.4.O.*.Q Z P S.R.b.P k p.f.f.I C Y E T ^ | { ^ { ~ / Q G L K W / ~ *.{ { { { ",
"2.+.O.$.J.>XG.t . C S K .XhX.X>.=.-.*.] | 5.,.=.o.v x T -.*.O.O.:.' *.*.^ *.:.=.W G P J.R.k.0 X N B D ; o z H Z &.~ ' 7.*.O.-.;.%.$.o.Z H Q O.*.4.4.+.",
"W W I I F.6XN.w $ M k J f.|.f.X.W W _ _ _ I _ K L S z C W W W W ) R ) W R #.o.I J N q J.:Xk.4 & : N N ; * j M b K W W W W ( W W I I J V z H W Q _ R _ ",
"; M N 0 n.6XG.w   7 - ; P I D 8 k k M M V 9 M N : : + M M k k N M j M N j : 8 9 0 % : J.G.b.t $ - 9 8 % O - 8 ; 8 ; N N N N M M k N 8 8 ; ; j M V M k ",
"7   % 6 n.,X6Xw > 2 $ % > O   $   , , > > >   - & $ & 2 2   % % % - - - O   2 2 2 . 6 S.I.m.6 2 1 2 2 >   2     O   > O   O O O % $ > > % $ %   O > $ ",
"0.0.0.a A.;X;Xd s 0.0.a 0.0.a a a p 0.e.s a ....u u 0.0.0.0.0.0.a a a 0.0.0.0.a a 0.p I.R.V.d s 0.a a 0.a a 0.a 0.0.0...0.....0...a a s a a ....0.0.0.",
"C.>XW.Z.;X;X;X;XR.I.C.Y.Y.Y.Y.R.Y.G.Y.W.R.R.T.Y.:XR.W.W.kXR.R.Y.C.C.C.Y.T.Y.R.C.R.Y.I.R.,X-XC.R.R.C.Y.Y.R.Y.Y.Y.Y.Y.Y.Y.Y.Y.Y.T.T.Y.R.R.R.R.Y.Y.Y.Y.R.",
":X<XT.E.C.-X-X-XE.T.Y.>X>X>X:XG.J.Y.T.T.E.E.E.T.>X>X<XkXjXkXE.E.,X>XR.>XF.J.>XY.:XT.E.R.:X-XR.>X>X:X:XY.>XR.R.>X>X>XT.>XT.>XT.>XT.,XR.xXZ.-X>X>XE.T.>X",
"qXqX+X8X8XvX9X8X8X8X8XqX1X1XL.l.k.J.qX8X3X8X8X8X5X3XzXE.R.R.2X3X4X8X8XL.g.l.qXqX1X8X0X+XqX9X3X8X1X4X9X4X1XqX4X4X1X4X4X1X1X1X3X8X8X3X<XZ.Y.<X4XqX8X3X8X",
"pXwXZXZXZXrXnXrXZXdXdXiXrXeXL.s.s.oXwXnXnXZXnXeXiXBXCXvXT.T.8XBXnXZXtX&Xa.d.wXrXrXgXfXdXrXVXiXgXrXiXiXrXiXiXiXwXVXrXrXuXVXiXnXnXrXBX4X>XT.4XeXrXnXrXrX",
"7X7XXX$X#X%X%X$X#X#X$X%XtXwX|.%.%.[.XX#X#X#X#X%X@X+X+XL.5XT.L.7X%XgXsX$X&.d.$X%XXX%X#X#XXX%XXX%X$X#XXX*X#X*XXX#X$X#X#X*X#X#X#X#X$XpXL.!.L.qX%X$X$X#X%X",
"%.o.=.=.*.&.*.=.-.=.o.<.%XsX`.W x ~ -.*.-.>.;.&.o.L X.t.S.S.g.%.x.7XaXXX*.O.-.o.=.=.+.*.=.=.=.=.+.-.*.+.*.*.O.*.*.O.:.&.&.:.:.=.o.$.g.L.l.g.%.o.-.-.=.",
"O.O.O.^ ^ ^ ~ O.*.+.O.-..XaX/.Y U ~ O.O.*.:.=.O.! b S X.T.6Xx.X.1.$X7X}.~ ~ *.*.@.=.4.2.2.+.^ 4.O.+.+.+.O.+.' O.*.*.*.*.*.*.6.-.-.%.g.H.K.g.$.-.O.*.*."
};
