/* XPM */
static char *_737e95a0a2545f6ac8955b976d41de0T0ACyn8n4lQgsbDT[] = {
/* columns rows colors chars-per-pixel */
"75 75 249 2 ",
"   c #6D1E1B",
".  c #6A1E17",
"X  c #741E15",
"o  c #7B1E15",
"O  c #731D1A",
"+  c #7C1F1A",
"@  c #771E0C",
"#  c #6E2115",
"$  c #66241C",
"%  c #6C221C",
"&  c #68291A",
"*  c #742116",
"=  c #792116",
"-  c #73221B",
";  c #7B241C",
":  c #7B291D",
">  c #73291C",
",  c #7D220D",
"<  c #6E1E20",
"1  c #751E21",
"2  c #5F2523",
"3  c #6B2422",
"4  c #652A24",
"5  c #6A2A25",
"6  c #6C2D2A",
"7  c #662625",
"8  c #742522",
"9  c #7C2522",
"0  c #7C2A23",
"q  c #732E2C",
"w  c #752B26",
"e  c #6E322C",
"r  c #683228",
"t  c #72322C",
"y  c #7B342B",
"u  c #762E33",
"i  c #6D3332",
"p  c #6E373A",
"a  c #723332",
"s  c #783B36",
"d  c #6A2F31",
"f  c #7C463D",
"g  c #7D4C4A",
"h  c #7B4845",
"j  c #7E514C",
"k  c #774C4D",
"l  c #871D13",
"z  c #871C0D",
"x  c #83251C",
"c  c #842A1D",
"v  c #8A2618",
"b  c #952A1B",
"n  c #99321D",
"m  c #87220B",
"M  c #A42E1C",
"N  c #A8321D",
"B  c #842C23",
"V  c #8C2C24",
"C  c #842824",
"Z  c #932D23",
"A  c #9C2D23",
"S  c #942F28",
"D  c #8D3225",
"F  c #8C332A",
"G  c #87362A",
"H  c #943224",
"J  c #9B3224",
"K  c #93332A",
"L  c #9D352B",
"P  c #9C3A2D",
"I  c #973A2A",
"U  c #893B35",
"Y  c #9C3B31",
"T  c #973A32",
"R  c #A52E23",
"E  c #A33324",
"W  c #AB3525",
"Q  c #AB3A27",
"!  c #A3352B",
"~  c #AC362A",
"^  c #A33A2C",
"/  c #AB3B2C",
"(  c #A23923",
")  c #B33C2C",
"_  c #BB3D2D",
"`  c #B23627",
"'  c #A33C32",
"]  c #AC3C32",
"[  c #A63834",
"{  c #B43D32",
"}  c #BC3E32",
"|  c #BA3D38",
" . c #C13E2D",
".. c #C03926",
"X. c #C23E32",
"o. c #C43E38",
"O. c #83453E",
"+. c #88473C",
"@. c #9A4438",
"#. c #AE402F",
"$. c #B4422E",
"%. c #BC422D",
"&. c #B94327",
"*. c #A44133",
"=. c #AC4234",
"-. c #AD4539",
";. c #AC4B3B",
":. c #A6493A",
">. c #B44333",
",. c #BC4333",
"<. c #B54934",
"1. c #BA4935",
"2. c #B5453A",
"3. c #BC443A",
"4. c #B44B3C",
"5. c #BC4B3B",
"6. c #BC513D",
"7. c #B5523C",
"8. c #AA513F",
"9. c #C2422E",
"0. c #C24234",
"q. c #C24539",
"w. c #C24B3C",
"e. c #C54838",
"r. c #C4523E",
"t. c #834643",
"y. c #834A43",
"u. c #824C4B",
"i. c #8A4845",
"p. c #974C43",
"a. c #865249",
"s. c #98554B",
"d. c #834C51",
"f. c #875757",
"g. c #995B53",
"h. c #934C52",
"j. c #A64D42",
"k. c #B74B43",
"l. c #A85548",
"z. c #B95848",
"x. c #A95D54",
"c. c #B75D52",
"v. c #95645D",
"b. c #9A645D",
"n. c #9B675D",
"m. c #8F675F",
"M. c #A86357",
"N. c #B6665A",
"B. c #AF6E56",
"V. c #956562",
"C. c #9B6562",
"Z. c #996966",
"A. c #9D766B",
"S. c #9E7C7A",
"D. c #9C7775",
"F. c #926869",
"G. c #A76964",
"H. c #B66D62",
"J. c #AD7466",
"K. c #A4746D",
"L. c #AC756B",
"P. c #A47A6D",
"I. c #AD7B6D",
"U. c #A67466",
"Y. c #B27A6D",
"T. c #B67468",
"R. c #A47573",
"E. c #AB7573",
"W. c #A47B74",
"Q. c #AB7B74",
"!. c #A3777A",
"~. c #A37B7A",
"^. c #AC7C7A",
"/. c #A97779",
"(. c #B27B72",
"). c #B47A75",
"_. c #A26C71",
"`. c #975D63",
"'. c #C35443",
"]. c #C35B4B",
"[. c #C95C4B",
"{. c #C75746",
"}. c #CA5E52",
"|. c #CF5648",
" X c #CA624E",
".X c #C4624D",
"XX c #C36353",
"oX c #CB6453",
"OX c #CC6A54",
"+X c #CC6A5A",
"@X c #C76759",
"#X c #D26354",
"$X c #D56A5A",
"%X c #D7745D",
"&X c #D06D58",
"*X c #E26959",
"=X c #E1745E",
"-X c #C97869",
";X c #D57563",
":X c #DA7563",
">X c #D57A65",
",X c #D97963",
"<X c #DA7969",
"1X c #C37C73",
"2X c #D0776B",
"3X c #E47867",
"4X c #EC796C",
"5X c #A38076",
"6X c #AE8172",
"7X c #AB827B",
"8X c #A6817B",
"9X c #BC8475",
"0X c #BD857B",
"qX c #BC8A7C",
"wX c #B58479",
"eX c #B58772",
"rX c #D8826D",
"tX c #C2857B",
"yX c #C38B7D",
"uX c #CB8C7E",
"iX c #C88676",
"pX c #D48574",
"aX c #DB8574",
"sX c #DC8B75",
"dX c #D48D7C",
"fX c #DB8C7C",
"gX c #D98878",
"hX c #CB917D",
"jX c #DB917D",
"kX c #D6927E",
"lX c #C8836E",
"zX c #E5836E",
"xX c #E28B7D",
"cX c #E58676",
"vX c #EB8975",
"bX c #A77D82",
"nX c #BA8883",
"mX c #AA8681",
"MX c #C48C82",
"NX c #CB8C82",
"BX c #C38783",
"VX c #D38E82",
"CX c #DB8E82",
"ZX c #CC9182",
"AX c #C59283",
"SX c #D29181",
"DX c #DC9182",
"FX c #E38E82",
"GX c #E49182",
/* pixels */
"X.q.] V p.J.L.s & G T S R R ` ,.%.%.0.q.o.X.0.%.&.r.zXrX].,.,.%.%.9.9. .%.,.,.;.U.6X8.<.0.9.X.,.| R L A K l.<XcX$X| ,.0.} 0.,.3.0.0.0.0.X.o.| q.) R A ",
",.3.*.F s.L.E.s $ w F S A R { ,.3.,.| | | X.} $.%.{.zXrX}.k.,.,.3.,.,.,.,.,.3.j.U.P.l.8.q.,.,.>.3.! S V F l.aXxX}.2.3.,.,.,.{ >.>.$.,.,.3.3.>.{ ] A S ",
"' P T s s.E.^.p 5 u G C V H I Y ' ' [ [ ] ] *.=.#.8.H.N.k.' ' *.' ^ ' ^ ^ ' [ @.K.U.x.T [ [ [ ' I H F V G @.N.@Xj.^ *.*.^ =.' ' *.^ ^ ^ ' *.*.@.P C V ",
"- > 3 7 h R./.p 2 7 < 3   % - - . O + O 1 + - # # * w w + O * # > - = - O O 1 8 A.A.d.w 9 1   > . * -   # % 6 > > . * * * = * o * * * X # # > # - - O ",
"f f f h f.S.^.f.k h h h h f y.f f +.y.i.+.f f f O.f k h t.t.y.O.f O.O.O.h O.i.t.S.S.f.t.t.t.h O.y.i.t.t.y.y.t.f y.f y.O.O.y.t.t.O.+.y.t.O.O.y.f h O.t.",
"P.P.A.W.W.~.~.D.R.W.P.P.K.R.W.R.P.U.E.E.U.6X5XA.A.W.D.D./._.R.U.P.P.Q.R.P.R.E.E.D.mX/._.R.W.P.R.U.K.K.E.R.E.R.R.K.P.A.R.K.~.R.E.R.R.K.K.R.R.Q.Q.R.R._.",
"P.P.P.I.7XR.Q.Q.R.P.5X6XI.W.P.W.Q.U.L.).Q.P.P.P.P.7XD.mX/.).E.Q.I.Q.Q.P.W.W.E.E.E.^.Q.^.W.W.Q.U.).E.Q.).E././.Q.R.W.W.Q.^.~.!.~.^.^.E.Q.Q.).E._.E.^.Q.",
"yXhXyXyXNXNXNXtXyXyXyXyXyXMXMXhXJ.x.H.uXNXyXZXyXyXnX5XmXbXBXNXiXuXuXAXyXqXBX1XVXNXBXNXZXyX0XNXuXtXM.g.G.1XNXNXyXMXZXBXnXnX7XbXmXnXMXMXBXNXtXL.x.H.tXNX",
"cXxXFXfXFXFXgXFXjXgXjXjXjXxXGXxXXXl.@XcXFXxXxXfXCXiXQ.8XBXCXFXaXxXFXgXCXkXkXDXxXxXxXxXfXjXjXxXxXcXz.:.N.rXjXxXfXaXGXfXdXVXwXQ.wXkXkXjXDXjXxXN.-.c.cXxX",
"].].[.].].].XX,XvX+Xz..X X.X}.{.'.&.5.[.[.[.].].c.H.U.P.G.N.].[.[.{.oX<XsX%Xc..X].[.].]..Xz.].[.[.1.#.<.7.7.z.z. Xz.].N.N.N.J.T.c.c.z.@X<XzX].Q =.]. X",
"e.} ,.,.3.>.6.%XvX X%.1.1.,.3.} e.9.9.%.} ,.,.1.4.c.L.P.x.j.<.,.0.%.5.vXzX&X<.,.%.%.,.1.1.%.X.o.%.%.1.#.J #.$.1.5.>.<.4.l.B.H.M.4.3.3.|.=X4Xr.b E >.,.",
"0. .0.3.1./ <.#X=Xr.9.9.0._  .X...9.9.%.%.,._ ,.=.j.U.U.x.*.) ,.0._ ,.3X%X X,.0.9.9.9.&.9.9. ... ._ $.Q ( N $.3.q.w.k.4.j.N.Y.x.<._ ,.'.*X3Xr.N Q #.) ",
" . .0.%.#.J J 7.'.1.%.0.9.` ` N ` 9.%.$.1.1.#./ T p.L.A.i.x n 3.%.<.>.r.{.1.,.,.%.%.&.&.%.%._ ` N b b b ' { 2.2.#X:X@X*.@.G.E.M.4.} q.} '.{.3.>./ E E ",
"X.0.,./ L Z n #.>.,.,. .0.%.` N _ 0.%.) <.#.^ H V i.^.Z.t.O v / Q $.=.=.>.3.q.X.e.%.&.%.0.0.| ~ R b l M { 2.>.2.#X<X@XU U Z.E.g.*.) | { | { { 3./ E E ",
"0.3.,.! A l x A W ) | X.,.,.%.` } ,.~ / J b V C 1 t./._.h.G V v b I L L R | o.| 9.%.%.%.9.0.| { ] ] ~ ~ 2.) R E [ -.@.: s M.R.s.c b E W 2.>.,.q.} ) _ ",
"| | ] L V o o S A ] 3.3.,.>.>.<.2.2.^ L V x o O 1 U ^._.h.U B = = n b I A { | | <.<.1.$.>.3.3.2.-.-.2.2.2.] R A J S B > e v.K.y.> , K Z =.2.2.{ 2.>.3.",
"A S V C x - - ; C V K K K H H D F F V 9 C ; * % 7 p E.K.i.w 8 * @ : B : x V K K K H b Z K K L S F D K D V b C C x 9 6 $ t n.U.a.$ # : V D K H n D D D ",
"- 8 - %       3 $ 3 3 % % % - % 5 & $ 8 8 % . 7 2 h E.Z.u.4 3 $ $ $ & $ - - % % # # * -   % 1 - % % % - - % -   3 % 4 4 i m.A.a.4 $ $ %     X . & & & ",
"g g u.g u.u.d.d.u.d.g h g u.h u.u.u.u.u.d.g g k j f.!._.m.k d.j u.h g j d.u.y.g g a.u.a.u.h u.u.u.u.u.u.y.u.u.g g j k k j F.D.F.g g d.d.d.d.h.u.u.h u.",
"!.S.S.R.S.!.!.D.!.~.~.~.W.~.W.D.E.E.E.R.R.!.~.!.~.!.~.S.!.D.!.S.D.~.S.S.R./.~.S.S.D.P.W.W.S.R.R.Q.Q.Q.R.~.~.S.~.S.~.S.D.mXbXmXD.!._.!.bXS.D.!.A.S.W.Q.",
"5X5X5XW.W.W./.W.6XW.Q.Q.W.Q.W.K.I.Q.Q.W.W.P.W.5XP.5X6XW.8XW.5X5XQ./.~.~.bX^.8XS.5X5XA.W.5X5X6XQ.E.Q.Q.I.R.W.~.W.5X^.W.~.mX!.R./.Q.Q.^./.S.S.~.~.P.W.^.",
"0XqX9XqX0X0XyXqXqXqXyX9X9XtX0XtX9XyX9XyXyXJ.M.J.eXyXyX0XyX9X9X0XnXQ.Q.wXBXBX0XqXeXqXqX9XeXeXyXyXtX9X9X9X0XyX0XtX0X0X0XtXmX0XtXyXtXyXtXnX8XS.wX0XqX0XtX",
"aXaXsXpXpXpXpXlXpXsXpXsXaXaXaXaXaXaXrXaXaXXXl.+XrXsXrXrXsXrXaXaXlX9XY.iXgX<XaXfXpXaXsXpXdXkXkXhXpXsXsXsXaXaXaXaXaXaXaXaXaXaXaXrXrXjXSXZX7X5X0XVXkXuXpX",
"oXoXOXOXz.z.l.z.z.c..XoX X#X#X#X X+X XoX#X6.<..X X X.XOX X.X#X}.H.J.T.H.@X}.}.oX#XoXoX@XrXsXrX&XXXXX.X XoXoX}.#X#XoXoX X X XOX X.X+XfXuX6XI.iXCX>X+XXX",
"3.3.3.3./ J n n N #.1.1.,.0.e.3.<.<.5.3.o.3.q.} 3.,.1.1.,.3.3.j.l.J.T.j.2.3.3.q.q.| 3.3.&XvXzX'.<.1.3.,.,.3.3.3.q.3.3.3.$.1.1.1.<.z.xXuXI.9X1XaX;Xk.,.",
"{ ) { 3.{ W N Q ( $.,.,.,.,.X.} 3.<.{ ` ~ ) { _ } ,.%.%.k.].{.] p.B.-Xj.2.,.{ { ` ` | 3.#X%X*X{.,.0.,.3.,.{ { { ~ ~ ) } ,.0.%.%.,.z.2X-XL.Q.-X;X#X3.} ",
"J R ~ >.q.} _ 0._ ,.0.,.3.3.3.,.3.>.E z z b R / ,.,.%.r.$X4X@XT @.x.-Xj.2./ R b z z R { w.q.e.X.X.9.,.,.,.] E n v l b ) ,.%.%.1.} ' T p.M.J.c.k.5.} } ",
"Z Z E ) 3.,.} 0.0.e.0.,.{ >.>.=.>.<.E z l b R ) %.%.%.w.$X4X}.G U M.H.j.;.^ M n v l E ] 2.{ X.X.X.e.w.3.2.] K v v l b / ,.,.9.9.3.] V U A.L.c.2.} X.X.",
"S H J ! / ,.,.} 0.0.,.$./ J n b E ,.] ! ! / / { %.%.%.,.4.k.*.0 y M.T.j.;.$./ / ! ! ! / =.<.,.,.,.|.*X].] H c c c c K ] <.3._ ) ! J x G Z.J.x.2.$.,.%.",
"V K H L ! 2.3.,.,.,.2.=.L V x o J >.4.2.k.2.2.3.,.,.%.$.^ K C 3 t n.T.@.;.<.>.<.-.-.! S ^ =.<.<.2.:XvX%X@.: = = C D T -.2.1.>.~ J C O u Z.).c.-.>.,.<.",
"B C V C K P ' ^ ! P ^ L H c = o V I P ' Y [ [ ' ^ ( P I D B w < i G.Y.@.Y ^ ' Y Y Y K V F Y ^ ^ I c.@Xx.T 8 8 O 0 B F T Y ' ! J C 9 8 u m.R.l.Y *.N I ",
"8 3 < 8 O - o * X = - O % -   - X X * - O + O o = @ * # # $ 8 5 i Z.G.5 - o o X X 9 O O % - X * # % - 8   % 3 3 3 < 1 9 1 o o O 8 < < p m.~.+.* * @ * ",
"i i i i i t t t t t t t t t t t t t t e e a t e t t e r e t q i s Z.U.i a 5 y t q q q q t a t q e e a u t t e e i i u u u y y q r e i h F.R.a.q t 6 y ",
"C.V.C.C.Z.V.C.Z.v.v.g.b.v.b.v.v.b.n.v.v.v.v.Z.Z.b.n.n.v.C.C.C.C.Z.W.Q.v.Z.v.n.n.n.G.n.b.b.b.n.v.n.Z.C.G.n.n.n.n.V.F.C._.`.g.b.C.v.m.m.v.R.Q._.Z.G.V.b.",
"L.Y.Y.Y.Y.I.I.I.).I.Y.Y.Y.Y.).).T.Y.I.Q.).Q.U.).T.(.Y.L.L.I.I.6XQ.I.5XL.6XI.I.Q.Q.I.Y.Q.Q.Y.(.I.L.Y.).T.Y.I.I.I.S.S.E.).Y.I.Y.I.6X6XeX6XY.Y.J.L.J.Y.Y.",
"dXdXSXSXdXSXSXkXdXNXZXSXNXVXVXNXhXhXZXNXNX9X6XeXVXSXVXuXVXuXZXZXZXZXZXZXZXZXZXuXZXZXZXZXNXNXZXSXuXNXNXVXhXhXhXAXmX8X7XMXZXSXSXuXiXhXiXhXVXiXB.l.M.uXVX",
"aXcXsXsXsXjXxXsXgXaXfXfXdXfXCXgXcXxXcXCXSX9XI.qXVXFXCXfXjXfXsXfXfXxXDXxXgXfXfXfXjXfXxXfXFXgXaXxXfXsXgXfXxXfXfXdXwXQ.).1XkXjXjXsXcXsXsXzXvXcXXX:.].cXFX",
"+XOXOXOX X+X XXX].@X+X+X+X+X+X+X&X&X#X@X+XT.6XqXCX<X+X@X+XoXOXoX$XoX#X+X@X+X+X+Xc..XoX+X#X+X$X&XOXOX+X+X+XXXc.M.U.Q.).-X@X@X+X&XOX#X$X X#X#X'.<.k.].z.",
"1.%.%.<.1.%.&.Q N ) >.,.,.,.,.,.} 3.| k.8.M.Y.).xX:Xk.| 1.$.e.0.3.,.%.,.1.$.>.>.n M E <.,.>.,.,.,.,.3.3.>./ ! F g.K.G.l.-.<.$.1.,.0.q.%.,.3.3.3.] E A ",
"%.%.$.%.,.%.%.N N ) %.,.,.0.,.9.0.q.3.-.:.M.Y.1XcX3Xq.,.,.%.9. . .9.0.%.,.%.$.$.M N ` %.,.%.%.9.%.%.,.3.,.) ! H g.L.H.j.2.,.,.0.0.X. .0.q.q.{ >.) R R ",
"<.<.,.>.>.1.%.%.%.%.%.%. .9.9.9.#XzX].H G s.U.B.k.'.| 3.>.$.9.9.9. .9.9.%.W N M &.&.%.%.%.%.9.9._ E R ~ | / J F g.P.x.G l A ~ ~ } ,.0.,.,.,.` M W ) ,.",
"=.$.=.>.>.) ) 1.,.,.%.9.9.9. .9.#X4X.XF +.8.U.l.k.| | ] >.>.} 9.9. .9.9.9.` N N &.%.%.%.0.0.%.%.$.R b ! =.^ L G g.Q.g.B x v A R } ,.} } } ,.` M ) $.,.",
"n Z H ! J b A =.>.,.,.,.9.%._ ,.1.z.@.: > +.J.M.k.[ A b J ^ ) X.X.X.X.0.} ) ` ` } ,.%.,.3.0._ ` ^ b x V I K C w f.A.n.s C c V H ^ W / ~ _ ,.} ` ) _ X.",
"o = x Z V l l ! 2.2.2.3.3.,.3.<./ K C * > +.J.M.j.P x o b A E | 3.3.3.3.3.2.>.2.>.3.2.>.3.3.{ / H : O C B C > & f.S.G.O.G = X c H H Z ( ' <.3.>.,.,.,.",
"O O - C ; O + V S V S Z Z Z Z Z V C 8 % r a.U.a.U B - . C l C A Z V V F Z F V F C K V V V S V C 9 > O O 0 > % 4 d./.`.s w % . ; 9 c c c c V Z Z Z H b ",
"  % % 3 %     O > 8 1 - 1 O + - O O 3 7 & g.U.y.4 5 $ # 1 O O > 8 1 - - - 1 8 - - - 8 8 8 8 8 % % 3 < 1 & & $ $ f.bX`.d $ $ % $ 3   $ % - % * % - = > ",
"5 5 5 4 5 7 7 7 7 5 5 5 7 5 7 5 7 7 6 7 q f.Z.a.r 4 4 4 8 5 4 r 7 7 4 5 7 5 3 4 5 5 3 7 5 5 4 7 6 3 6 3 & 4 4 r f.!.`.a 4 4 7 4 3 3 5 5 6 5 r 5 7 7 7 ",
"n.C.v.V.Z.V.C.Z.n.n.n.C.C.Z.Z.V.C.V.n.C.`.K.W.A.Z.v.v.n.C.C.n.m.v.V.C.V.C.Z.n.C.Z.C.C.C.C.V.n.b.`.C.C.C.v.v.m.Z.F.^.E.C.n.n.v.C.G.C.`.G.C.C.C.C.C.C.C.",
"^.L.^.W.!.!.bXbXE.Q.6X6XU.Q.W.5XL.Y.I.P.I.6XP.W.P.Q.Q.Q.Q.P.5X5XR.Q.W.~.6X5X5X5X~.!.^.~.P.6XQ.(.Q.I.W.P.5X6X5X8XQ.Q.E.Q.L.Q.R.P.6X).).).E.E.(.Y.E.Q.Q.",
"MXyXNXnXmXbXbXnXMXiXhXyXiXyXnXyXH.x.H.iXuXyX0XyXyXAXMXhXAXyXqXyXyXMXBXMXqXyXqXnX^.~.nXnXqXhXyXyXuXyXyXqXqXnXyXyXNXNXNXMXMXyXyXAXyXhXNX1XG.M.T.uXuXuXyX",
"dXjXCXSXqXQ.E.yXfXsXsXkXfXCXkXfX@X;.XXxXjXsXfXfXgXfXxXgXgXfXjXfXfXxXfXCXjXkXdXkXY.E.tXVXjXfXgXfXfXcXfXdXfXfXCXSXdXfXdXdXfXfXgXfXjXsXxXrXz.8.@XxXxXsXcX",
"%X;X>XfXtX).T.1X-X>X%X%X>X>X%X+X'.>.[.%X%X%X>X%X:X<X:X<XzXvXzX%X%X,X:X,X>X%X>XlX-X).1X-X2X>X>X,X:X%X,X,X>X;X+X+XrXxXcX;X<X<X;X,X%X&X%XOX6.<..X%X%X,X%X",
"6.7. XcXlX(.J.M.8.4.6.4.3.2.>.W _ _ q.5.w.'.'.5.5.k.5.'.*XvX%X1.1.w.w.w.5.5.k.j.T.J.M.j.k.5.7.4.w.w.w.'.3.{ ' ^ @XzX<X].4.4.k.5.6.5.6.r.1.%.w.k.6.4.4.",
",.$.6.+XT.I.Y.s.*.<.>.,.,.{ ) W _ X.0.%.,.) W { ,.q.,.q.|.*X#X%.,.%.0.q.,.{ =.@.J.L.x.' z.].}.5.,.} 3.X.| { / ^ k.OXz.^ E { ,.q.,._ %.%.%.,.,.{ >.E ! ",
",.0.,.k.M.J.Y.p.I / ,.3.,.3. ._ 0.0.0.q.3.` M ) ,.3.,.,.0.q.e.e.%.%.9.X.,./ ! I U.A.g.T }.:X,X'.>.,.} 3.| 3.{ { ^ *.n m b / 3.} o.,.0.q.} q.3.| ! l l ",
"_ e.,.>.x.J.L.i.K / >.,.| ,.0.X.0._ 0.,.} W N ) ,._ ,.,.q.%.%.%.%.%.X.q.} ~ J D A.D.h.G XXzXzX7.>.<.,.} X.0.,.,.( n v z z ~ | 0.o.X.X.o.o.| 3.| [ l o ",
" .e.%.<.x.J.I.U = ^ ^ #.}.#Xq.0.0.%.%.,.,.$.) W Q ) _ ,.%.%.%.9.&.%.X.| ,.~ A I U.A.y.B *.z.z.*.n ( Q ) } 0.q.} $./ ( n E W ) _ 0.0.X.X.X.| { ~ A Z v ",
"0.3.,.2.M.J.P.f * b n -.:X3X[.>.$.,.,.,.%.>.] / M E #.>.>.,.,.,.1.1.3.| 3.^ J U A.A.O.- c H D @ , v n ( _ 3.} ,.<.<.-.2.=.E E E ,.,.,.,.3.} ~ J J H F ",
"! P L @.s.I.W.p $ > : F c.N.8.I L ^ ' L P ' ! A b D I ' ^ ^ ! ^ ^ L ! [ P S C y D.D.k < > C B : # > B H ! [ [ ~ [ ! Y ' I S V Z I ( L ( P ^ L c V C C ",
"9 9 B > y.W.~.p 7 3 5 w t y 0 : ; : ; ; : C 9 - - > 9 9 : ; c x : : 9 C 9 ; > 6 !.D.k 7 $ - 3 % & & - - 9 C x C x ; 9 9 9 O 8 9 > : : : 9 : : - - - > ",
"i 6 a 6 k D.D.k i i i d 6 i 6 6 t t 6 q q q q q q e i q q q u u q u u u w q t i D.D.d.p a i 6 i e a e q w q w q q w q a a u 6 i t e e 6 w t t 6 6 t t ",
"Z.V.C.n.A.S.bXF.m.m.m.V.C.C.C.n.Z.n.n.M.C.C.Z.Z.V.F.F.V.Z.Z.C.`.C.C.G.C.b.v.n.m.D.bX_.F.V.n.C.C.v.n.C.n.Z.Z.C.C.`.G.C.n.V.Z.V.V.V.V.n.C.n.C.C.C.n.C.V.",
"7XQ.Q.6X^.~.^.^.W.7XQ.^.).).L.L.P.P.Q.Q.Q.Q.5X8X8X5XS.A.W.W./.Q.^.K.R.^.I.6X6X6X^.^.7X7XQ.6XI.).E.^.Q.Q.7X6X5XW.Q.Q.8XQ.5XW.~.8X~.Q.^.^.^.^.^.^.^.7XQ.",
"qXwX9X9XMX0X0XtXtX9X9X0XBX).B.M.L.eX0X9X9XtXqXnXqX7X5X5X7XqXnXtX).G.B.(.eX9XeX9X0X0XqX0X9X9X9XtXtXtX0X0X0X9XeXqX9X9X0XnXwXQ.W.7X0XnX0X0XtX0X0XnX0XwXwX",
"uXjXdXfXjXgXfXDXgXjXfXdXFX<Xz.j.N.fXjXsXcXxXxXfXVXnX7X8X0XkXkXkXpXc.j.aXfXxXsXsXjXjXkXjXkXsXsXsXjXjXjXjXfXjXsXjXsXsXjXSXNX(.).qXSXdXkXjXdXkXjXkXVXdXdX",
",X>X<X<X<X<X,X;X>X<X<X<XcX3Xz.;.XX,X%X%X=X=X3X>X2XT.W.Q.(.rXpXaX<X].4.%X3X%X,X:X,X,X>X>X>X%X%XrX%X%X,X,X%X%X%X=X3X%X;X>X1XT.).).>X,X>X,X>X,X>X>X>X;X2X",
"q.o. .0.,.5.1.>.<.=.>.'.3X*X2.J ~ >.1.<.1.,.2.[ F p.R.R.l.:.N.zX3Xz.<.1.1.%.,.%.,.,.3.3.,.,.,.$.<.<.1.3.>.1.1.%.1.>.<.7.z.G.H.x.;.,.,.,.>.>.<.=.^ n H ",
"o.o.X._ _ / / >.>._ >.'.:X%X7.M ) ,.1.&.,.>.[ P B +.).).l.>.|.3X%X7.#.%.%._ 0.0.X.X.0.0.0.0.0.0.%.%.) >.,.,.,.,.3.6.4.*.j.H.Y.x.3.0.0.X.X.X.e.r.1.E M ",
",.q.$.( n m m #.<.,.,.,.w.r.>._ } X.9._ %.) ! V : U _.H.c.2.| ,.Q n m <.1.%._ 0.X. .X.X.X.0.X.%.0.` R ` <.>.>.1.#X3XOX@.+.M.K.x.2. .X.9. .e.|.*X|._ ) ",
"$.1.( n b , m #._ } 0. .X.,.,.0.X.X.q.,.1.=.V 9 * s ).L.z.{ ` R n v m $.%.,._ %.} ,.,.0.0.,.,.0.%.R M W $.%.$.1.#X4X+X@.+.G.U.M.-.,.,.%.,.w.*X4X*Xq.X.",
"q.,.{ ~ ( E n Q ` { o.o.0.q.} { q.,.[.$X&Xk.F 9 % s E.K.c.k.| ~ ~ E M $.<.1.<.1.n n E ! ~ W W _ ,._ ) { } } ,.3.5.k.k.K @.M.Y.s.D H P J J Q r.#X|.,.,.",
"3.} 3.2.>.4.<.M R ~ 3.| } ,.2.4.2.>.}.zXcXc.G w & s ~.K.l.;.-.2.2.2.2.4.1.=.;.=.z o x Z Z Z J ] | | 3.3.| 2.,.>./ b S T U M.L.i.* = D D K H ^ 3.-.>.2.",
"! ! ! ! ! L K Z Z K L P I I K Y I *.8.N.c.p.y 8 $ f !.R.s.I Y P P [ ! L L I I T o * : C C V F K P L P P P L ^ L H V B 0 s M.K.d.$ ; : B B B K P Y Y P ",
"+ + + + + + + X X - = > O X - = ; @ * = ; O < 3 2 i D.Z.+.= - = + + + o + o o * # % % - %   X * = o = o * X o - ; X > % a V.D.d.%   - > O . - - * X = ",
"  .     O O O     % % . . X O X X *   . - 9 1 < $ f ~.A.+..   % % %   O O O O % - % % 3 % . % # * . - # # - O X X . % % t V.D.u.3 O   -   O     O   - "
};
